<svg width="17" height="17" viewBox="0 0 17 17" fill="none" xmlns="http://www.w3.org/2000/svg">
<path d="M16.502 6.00977H14.4111C14.6443 5.0282 14.5793 3.99683 14.2155 3.04237C14.1176 2.78543 13.8298 2.65651 13.5727 2.75443C13.2021 2.89568 12.8481 3.08231 12.5198 3.30669C12.4691 2.84963 12.374 2.42188 12.2334 2.05133C12.1357 1.79414 11.8481 1.66496 11.591 1.76249C11.0164 1.98064 10.4913 2.29932 10.0366 2.70152C9.835 1.81891 9.47677 0.770416 8.85213 0.145912C8.75875 0.0523987 8.63203 0 8.5 0C8.36784 0 8.24125 0.0525284 8.14787 0.145912C7.52531 0.768471 7.16734 1.81216 6.96539 2.69308C6.51274 2.29322 5.99044 1.9761 5.4195 1.75834C5.16257 1.66042 4.87463 1.78934 4.77671 2.0464C4.63443 2.41968 4.53845 2.85093 4.48748 3.31175C4.15739 3.08517 3.80072 2.89684 3.42731 2.75443C3.17038 2.65651 2.88245 2.78543 2.78452 3.0425C2.42072 3.99683 2.35574 5.0282 2.58894 6.00977H0.498047C0.222954 6.00977 0 6.23272 0 6.50781V9.49609C0 12.5169 2.4726 14.9746 5.51172 14.9746C6.27578 14.9746 7.02052 15.3594 7.50391 16.0039L8.10156 16.8008C8.193 16.9224 8.34177 17 8.5 17C8.66005 17 8.80804 16.9209 8.89844 16.8008L9.49609 16.0039C9.97948 15.3594 10.7242 14.9746 11.4883 14.9746C14.5274 14.9746 17 12.5169 17 9.49609V6.50781C17 6.23272 16.777 6.00977 16.502 6.00977ZM13.3796 6.01067C13.0124 6.01742 12.654 6.06048 12.3077 6.13635C12.4401 5.62806 12.5213 5.09149 12.5508 4.56141C12.8161 4.30512 13.1172 4.08437 13.4421 3.90824C13.6067 4.60162 13.5854 5.32547 13.3796 6.01067ZM11.4516 2.91954C11.6705 3.93444 11.5826 5.31989 11.1761 6.42467C11.1633 6.45969 11.155 6.4951 11.1502 6.53064C10.7867 6.7021 10.4451 6.91248 10.1306 7.15631C10.3511 6.34387 10.3937 5.14545 10.2459 3.91576C10.5806 3.50708 10.9896 3.16947 11.4516 2.91954ZM8.5 1.33617C9.29234 2.75716 9.5721 5.70095 9.12878 7.03089L8.5 8.91724L7.87122 7.03089C7.42544 5.69356 7.71117 2.7508 8.5 1.33617ZM5.55737 2.91552C6.01599 3.16467 6.42234 3.50008 6.75541 3.90565C6.606 5.13883 6.64828 6.34167 6.86942 7.15631C6.55723 6.91429 6.21832 6.70522 5.85789 6.5344C5.85322 6.49821 5.84479 6.46203 5.83169 6.42623C5.42936 5.33351 5.33364 3.94624 5.55737 2.91552ZM3.55792 3.90824C3.88606 4.08619 4.18995 4.3094 4.45713 4.56906C4.48683 5.09733 4.56802 5.63156 4.69993 6.13791C4.3513 6.06113 3.99034 6.01742 3.62044 6.01067C3.4146 5.32547 3.39333 4.60162 3.55792 3.90824ZM5.51172 13.9785C3.02187 13.9785 0.996094 11.9677 0.996094 9.49609V7.00586H3.51953C5.99109 7.00586 8.00195 9.01659 8.00195 11.4883V15.0567C7.341 14.3751 6.43881 13.9785 5.51172 13.9785ZM16.0039 9.49609C16.0039 11.9677 13.9781 13.9785 11.4883 13.9785C10.5611 13.9785 9.659 14.3751 8.99805 15.0567V11.4883C8.99805 9.01659 11.0088 7.00586 13.4805 7.00586H16.0039V9.49609Z" fill="#8C8C8C"/>
<path d="M13.4805 8.00195C11.5581 8.00195 9.99414 9.56587 9.99414 11.4883V12.4842C9.99414 12.7592 10.2171 12.9823 10.4922 12.9823H11.4883C12.4194 12.9823 13.2949 12.6198 13.9534 11.9613C14.612 11.3028 14.9746 10.4273 14.9746 9.49596V8.5C14.9746 8.22491 14.7515 8.00195 14.4766 8.00195H13.4805ZM13.9785 9.49596C13.9785 10.1612 13.7194 10.7866 13.2491 11.2569C12.7787 11.7273 12.1534 11.9862 11.4883 11.9862H10.9902V11.4883C10.9902 10.1152 12.1073 8.99805 13.4805 8.99805H13.9785V9.49596Z" fill="#C4C4C4"/>
<path d="M3.51953 8.00195H2.52344C2.24834 8.00195 2.02539 8.22491 2.02539 8.5V9.49596C2.02539 10.4273 2.38803 11.3028 3.04665 11.9613C3.70513 12.6198 4.58047 12.9823 5.51172 12.9823H6.50781C6.78291 12.9823 7.00586 12.7592 7.00586 12.4842V11.4883C7.00586 9.56587 5.44194 8.00195 3.51953 8.00195ZM6.00977 11.9862H5.51172C4.84662 11.9862 4.22121 11.7272 3.75092 11.2569C3.28049 10.7866 3.02148 10.1612 3.02148 9.49596V8.99805H3.51953C4.89266 8.99805 6.00977 10.1152 6.00977 11.4883V11.9862Z" fill="#C4C4C4"/>
</svg>
