<svg width="16" height="16" viewBox="0 0 16 16" fill="none" xmlns="http://www.w3.org/2000/svg">
<path d="M14.9063 0.428833C14.4833 0.0058467 13.8804 -0.114105 13.3279 0.113172L0.90036 5.22688C0.335326 5.46047 -0.0182147 6.00341 0.000724943 6.61264C0.0133514 7.22186 0.398458 7.7427 0.976118 7.94157L5.22492 9.39361C5.41432 9.4599 5.62265 9.41887 5.77733 9.28944L11.1467 4.73445C11.3866 4.53243 11.415 4.17258 11.213 3.93267C11.011 3.69277 10.6511 3.66436 10.4112 3.86638L5.28805 8.21304L1.34544 6.86517C1.1592 6.80203 1.13395 6.64105 1.13079 6.57791C1.12764 6.51163 1.14342 6.35064 1.3265 6.27804L13.7541 1.16117C13.9309 1.08856 14.054 1.18642 14.0982 1.23061C14.1424 1.27481 14.2402 1.39791 14.1676 1.57468L9.05389 14.0023C8.97813 14.1854 8.81714 14.198 8.75401 14.198C8.68772 14.1948 8.52989 14.1727 8.46676 13.9833L7.30828 10.59C7.20727 10.2932 6.8853 10.1354 6.58542 10.2364C6.2887 10.3374 6.13087 10.6594 6.23188 10.9593L7.39036 14.3527C7.58922 14.9303 8.11006 15.3154 8.71929 15.3344C8.73507 15.3344 8.75086 15.3344 8.76664 15.3344C9.35693 15.3344 9.88092 14.984 10.1082 14.4347L15.2219 2.00714C15.4492 1.45473 15.3292 0.851819 14.9063 0.428833Z" fill="#8C8C8C"/>
</svg>
