<svg width="13" height="16" viewBox="0 0 13 16" fill="none" xmlns="http://www.w3.org/2000/svg">
<path d="M12.6121 12.0938C12.4827 11.8949 12.3501 11.7023 12.2176 11.5161C12.1197 11.374 12.025 11.2415 11.9335 11.1057C11.8861 11.0331 11.8388 10.9637 11.7914 10.8942C11.5452 10.5249 11.2895 10.143 11.0559 9.76102C10.6456 9.09182 10.4088 8.36895 10.3299 7.54823C10.2731 6.94532 10.1879 6.34556 10.0711 5.76475C9.91008 4.9535 9.54707 4.3127 8.99151 3.86131C8.36018 3.34047 7.54578 3.16685 6.69349 3.36888C6.19475 3.48883 5.68338 3.29628 5.44979 2.90486C5.33615 2.71546 5.27933 2.49765 5.28564 2.27353C5.30143 1.66431 5.8128 1.15609 6.42202 1.13715C6.91761 1.12453 7.37216 1.42756 7.54893 1.89158C7.65941 2.18515 7.9877 2.33351 8.28127 2.21987C8.57483 2.10939 8.72319 1.7811 8.60956 1.48754C8.26233 0.572119 7.36901 -0.0244812 6.3873 0.00077168C5.80333 0.0165547 5.24776 0.259614 4.82793 0.679443C4.40495 1.10243 4.16504 1.65484 4.14926 2.23881C4.13664 2.67758 4.25027 3.11004 4.47439 3.48567C4.96998 4.31271 5.96747 4.70728 6.95865 4.47054C7.31219 4.38531 7.82356 4.36321 8.2718 4.73253C8.2718 4.73253 8.27495 4.73253 8.27495 4.73569C8.62534 5.02294 8.84946 5.43015 8.95994 5.98255C9.06726 6.52549 9.14934 7.08421 9.203 7.64924C9.29454 8.63095 9.59442 9.54006 10.09 10.3513C10.3362 10.749 10.5982 11.1405 10.8508 11.5193C10.8981 11.5887 10.9454 11.6613 10.9928 11.7307C11.0907 11.8791 11.1948 12.0243 11.2927 12.1632C11.4221 12.3463 11.5452 12.5231 11.6588 12.6998C11.7062 12.7724 11.782 12.9082 11.7662 12.9997C11.7535 13.0691 11.6841 13.167 11.5641 13.268C11.3211 13.4764 11.0023 13.5995 10.6898 13.6973C9.69543 14.0161 8.59062 14.1961 7.20486 14.2623H5.69916C4.31656 14.1992 3.20859 14.0193 2.21426 13.6973C1.90491 13.5963 1.58294 13.4764 1.33988 13.268C1.21992 13.1638 1.15048 13.0691 1.13785 12.9997C1.12207 12.9082 1.20099 12.7724 1.24518 12.6998C1.36197 12.5199 1.48192 12.3463 1.61134 12.1632C1.7092 12.0243 1.81337 11.8791 1.91122 11.7307C1.95857 11.6613 2.00592 11.5887 2.05327 11.5193C2.3058 11.1405 2.5678 10.749 2.81401 10.3513C3.31276 9.54321 3.60948 8.63411 3.70102 7.64924C3.75468 7.08421 3.8336 6.52549 3.94408 5.98255C3.98827 5.75528 4.05456 5.5501 4.13979 5.37017C4.27237 5.08607 4.15242 4.74832 3.86832 4.61258C3.58423 4.48 3.24647 4.59996 3.11074 4.88405C2.98763 5.14605 2.88977 5.44277 2.82664 5.75843C2.70985 6.33925 2.62462 6.93901 2.5678 7.54192C2.49204 8.35948 2.25529 9.0855 1.84178 9.75471C1.60819 10.1367 1.3525 10.5186 1.10629 10.8879C1.05894 10.9574 1.01159 11.03 0.964239 11.0994C0.872697 11.2352 0.777999 11.3677 0.680144 11.5098C0.550723 11.696 0.414989 11.8886 0.285567 12.0874C-0.181611 12.8324 -0.0742864 13.5584 0.598072 14.1361C0.992649 14.477 1.44089 14.6506 1.86703 14.7895C2.96238 15.143 4.1682 15.3388 5.66128 15.4082C5.67075 15.4082 5.68022 15.4082 5.68653 15.4082H7.21749C7.22696 15.4082 7.23643 15.4082 7.24274 15.4082C8.73582 15.3388 9.94165 15.143 11.037 14.7895C11.4631 14.6538 11.9114 14.4802 12.3059 14.1361C12.9752 13.5553 13.0856 12.8292 12.6121 12.0938Z" fill="#8C8C8C"/>
</svg>
