<svg width="16" height="14" viewBox="0 0 16 14" fill="none" xmlns="http://www.w3.org/2000/svg">
<path d="M4.3859 5.6168C4.16494 5.39268 3.80508 5.39268 3.58096 5.61364C3.35684 5.83461 3.35684 6.19446 3.57781 6.41858L6.27355 9.13327C6.38088 9.24059 6.52293 9.30057 6.67444 9.30057C6.67444 9.30057 6.67444 9.30057 6.6776 9.30057C6.82912 9.30057 6.97117 9.24059 7.07849 9.13642L15.2857 0.973422C15.5066 0.75246 15.5098 0.392606 15.2888 0.168486C15.0679 -0.0556332 14.708 -0.0556332 14.4839 0.16533L11.583 3.04732C10.3487 1.52899 8.49265 0.638822 6.51977 0.638822C5.59804 0.638822 4.70787 0.828218 3.87453 1.19754C3.06959 1.5574 2.35304 2.06561 1.75013 2.71587C1.14722 3.36298 0.689506 4.1111 0.389628 4.93813C0.0771236 5.79988 -0.049141 6.70583 0.0171479 7.63387C0.241267 10.8441 2.83285 13.4389 6.04312 13.6693C6.20095 13.6819 6.36194 13.6851 6.51977 13.6851C8.01285 13.6851 9.45542 13.18 10.6171 12.2394C11.886 11.2166 12.7194 9.76774 12.9687 8.16418C13.0192 7.8359 13.0445 7.49814 13.0445 7.16038C13.0445 6.84788 12.7888 6.59219 12.4763 6.59219C12.1638 6.59219 11.9081 6.84788 11.9081 7.16038C11.9081 7.43816 11.886 7.71595 11.845 7.99057C11.422 10.7368 8.90933 12.7318 6.12519 12.5329C3.4768 12.3435 1.33661 10.2034 1.15037 7.5518C1.04305 6.03663 1.55126 4.59406 2.58032 3.48924C3.59675 2.40021 5.03301 1.7752 6.51977 1.7752C8.18646 1.7752 9.75214 2.54857 10.7717 3.85541L6.68076 7.92744L4.3859 5.6168Z" fill="#0373ED"/>
</svg>
