<svg width="16" height="14" viewBox="0 0 16 14" fill="none" xmlns="http://www.w3.org/2000/svg">
<path d="M13.4061 0.937976C12.7811 0.458171 12.0393 0.148823 11.2565 0.047811C9.91177 -0.128959 8.59547 0.2814 7.60113 1.17157C6.6068 0.271931 5.28418 -0.138429 3.93315 0.0414978C3.15031 0.145666 2.40535 0.458171 1.77718 0.944289C0.647117 1.82498 -0.00314517 3.14129 1.14394e-05 4.56177C1.14394e-05 5.77706 0.47666 6.92291 1.33842 7.78467L6.7962 13.2425C7.00453 13.4508 7.276 13.5518 7.54747 13.5518C7.81894 13.5518 8.09041 13.4476 8.29875 13.2425L9.14472 12.3965C9.36568 12.1755 9.36568 11.8157 9.14472 11.5915C8.92376 11.3706 8.5639 11.3706 8.33978 11.5915L7.54747 12.3839L2.14335 6.97658C1.49625 6.32947 1.13955 5.47087 1.13639 4.55545C1.13639 3.49168 1.62251 2.5005 2.4748 1.83761C2.94197 1.4746 3.49754 1.24101 4.08151 1.16525C5.16107 1.0232 6.21538 1.37675 6.97613 2.14065L7.60113 2.76565L8.21983 2.14696C8.97742 1.38621 10.0317 1.03267 11.1081 1.17472C11.6921 1.25048 12.2445 1.48091 12.7117 1.83761C13.6019 2.5226 14.0943 3.55481 14.0627 4.66594C14.0375 5.54032 13.6555 6.38945 12.9926 7.05549L10.1138 9.93117C9.89283 10.1521 9.89283 10.512 10.1138 10.7361C10.3348 10.9571 10.6946 10.9571 10.9187 10.7361L13.7976 7.85727C14.6688 6.98605 15.1675 5.86545 15.1991 4.6975C15.2433 3.21705 14.5899 1.84708 13.4061 0.937976Z" fill="#0373ED"/>
</svg>
