<svg width="14" height="17" viewBox="0 0 14 17" fill="none" xmlns="http://www.w3.org/2000/svg">
<path d="M9.33329 14.6665C9.33329 15.7711 8.28862 16.6665 6.99996 16.6665C5.71129 16.6665 4.66663 15.7711 4.66663 14.6665H9.33329Z" fill="#0373ED"/>
<path d="M13.6316 14.6667H0.368256C0.232616 14.6667 0.107948 14.5922 0.0437246 14.4733C-0.0204993 14.3541 -0.0134809 14.2094 0.0615342 14.097C0.0755675 14.0758 1.47353 11.9467 1.47353 9.16667V5.5C1.47353 2.46712 3.95267 0 6.99991 0C10.0472 0 12.5263 2.46712 12.5263 5.5V9.16667C12.5263 11.9568 13.9241 14.0755 13.9381 14.0966C14.0135 14.209 14.0205 14.3537 13.9565 14.4729C13.8922 14.5922 13.7674 14.6667 13.6316 14.6667Z" fill="#0373ED"/>
</svg>
