<svg width="13" height="14" viewBox="0 0 13 14" fill="none" xmlns="http://www.w3.org/2000/svg">
<path d="M6.5 7C8.42977 7 10 5.56062 10 3.79167V3.20833C10 1.43937 8.42977 0 6.5 0C4.57023 0 3 1.43937 3 3.20833V3.79167C3 5.56062 4.57023 7 6.5 7Z" fill="#757575"/>
<path d="M11.2289 8.72833C10.1914 8.396 8.52862 8 6.5 8C4.47138 8 2.80862 8.396 1.7711 8.72833C0.711905 9.06767 0 10.0953 0 11.2853V13.6667C0 13.8507 0.138667 14 0.309524 14H12.6905C12.8613 14 13 13.8507 13 13.6667V11.2853C13 10.0953 12.2881 9.06767 11.2289 8.72833Z" fill="#757575"/>
</svg>
