<svg width="265" height="36" viewBox="0 0 265 36" fill="none" xmlns="http://www.w3.org/2000/svg">
<rect width="265" height="36" rx="9" fill="#F8F8F8"/>
<path d="M14.6719 19.9297C13.3854 19.5599 12.4479 19.1068 11.8594 18.5703C11.276 18.0286 10.9844 17.362 10.9844 16.5703C10.9844 15.6745 11.3411 14.9349 12.0547 14.3516C12.7734 13.763 13.7057 13.4688 14.8516 13.4688C15.6328 13.4688 16.3281 13.6198 16.9375 13.9219C17.5521 14.224 18.026 14.6406 18.3594 15.1719C18.6979 15.7031 18.8672 16.2839 18.8672 16.9141H17.3594C17.3594 16.2266 17.1406 15.6875 16.7031 15.2969C16.2656 14.901 15.6484 14.7031 14.8516 14.7031C14.112 14.7031 13.5339 14.8672 13.1172 15.1953C12.7057 15.5182 12.5 15.9688 12.5 16.5469C12.5 17.0104 12.6953 17.4036 13.0859 17.7266C13.4818 18.0443 14.151 18.3359 15.0938 18.6016C16.0417 18.8672 16.7812 19.1615 17.3125 19.4844C17.849 19.8021 18.2448 20.1745 18.5 20.6016C18.7604 21.0286 18.8906 21.5312 18.8906 22.1094C18.8906 23.0312 18.5312 23.7708 17.8125 24.3281C17.0938 24.8802 16.1328 25.1562 14.9297 25.1562C14.1484 25.1562 13.4193 25.0078 12.7422 24.7109C12.0651 24.4089 11.5417 23.9974 11.1719 23.4766C10.8073 22.9557 10.625 22.3646 10.625 21.7031H12.1328C12.1328 22.3906 12.3854 22.9349 12.8906 23.3359C13.401 23.7318 14.0807 23.9297 14.9297 23.9297C15.7214 23.9297 16.3281 23.7682 16.75 23.4453C17.1719 23.1224 17.3828 22.6823 17.3828 22.125C17.3828 21.5677 17.1875 21.138 16.7969 20.8359C16.4062 20.5286 15.6979 20.2266 14.6719 19.9297ZM24.1016 25.1562C22.9557 25.1562 22.0234 24.7812 21.3047 24.0312C20.5859 23.276 20.2266 22.2682 20.2266 21.0078V20.7422C20.2266 19.9036 20.3854 19.1562 20.7031 18.5C21.026 17.8385 21.474 17.3229 22.0469 16.9531C22.625 16.5781 23.25 16.3906 23.9219 16.3906C25.0208 16.3906 25.875 16.7526 26.4844 17.4766C27.0938 18.2005 27.3984 19.237 27.3984 20.5859V21.1875H21.6719C21.6927 22.0208 21.9349 22.6953 22.3984 23.2109C22.8672 23.7214 23.4609 23.9766 24.1797 23.9766C24.6901 23.9766 25.1224 23.8724 25.4766 23.6641C25.8307 23.4557 26.1406 23.1797 26.4062 22.8359L27.2891 23.5234C26.5807 24.612 25.5182 25.1562 24.1016 25.1562ZM23.9219 17.5781C23.3385 17.5781 22.849 17.7917 22.4531 18.2188C22.0573 18.6406 21.8125 19.2344 21.7188 20H25.9531V19.8906C25.9115 19.1562 25.7135 18.5885 25.3594 18.1875C25.0052 17.7812 24.526 17.5781 23.9219 17.5781ZM34.2969 25C34.2135 24.8333 34.1458 24.5365 34.0938 24.1094C33.4219 24.8073 32.6198 25.1562 31.6875 25.1562C30.8542 25.1562 30.1693 24.9219 29.6328 24.4531C29.1016 23.9792 28.8359 23.3802 28.8359 22.6562C28.8359 21.776 29.1693 21.0938 29.8359 20.6094C30.5078 20.1198 31.4505 19.875 32.6641 19.875H34.0703V19.2109C34.0703 18.7057 33.9193 18.3047 33.6172 18.0078C33.3151 17.7057 32.8698 17.5547 32.2812 17.5547C31.7656 17.5547 31.3333 17.6849 30.9844 17.9453C30.6354 18.2057 30.4609 18.5208 30.4609 18.8906H29.0078C29.0078 18.4688 29.1562 18.0625 29.4531 17.6719C29.7552 17.276 30.1615 16.9635 30.6719 16.7344C31.1875 16.5052 31.7526 16.3906 32.3672 16.3906C33.3411 16.3906 34.1042 16.6354 34.6562 17.125C35.2083 17.6094 35.4948 18.2786 35.5156 19.1328V23.0234C35.5156 23.7995 35.6146 24.4167 35.8125 24.875V25H34.2969ZM31.8984 23.8984C32.3516 23.8984 32.7812 23.7812 33.1875 23.5469C33.5938 23.3125 33.888 23.0078 34.0703 22.6328V20.8984H32.9375C31.1667 20.8984 30.2812 21.4167 30.2812 22.4531C30.2812 22.9062 30.4323 23.2604 30.7344 23.5156C31.0365 23.7708 31.4245 23.8984 31.8984 23.8984ZM41.8672 17.8438C41.6484 17.8073 41.4115 17.7891 41.1562 17.7891C40.2083 17.7891 39.5651 18.1927 39.2266 19V25H37.7812V16.5469H39.1875L39.2109 17.5234C39.6849 16.7682 40.3568 16.3906 41.2266 16.3906C41.5078 16.3906 41.7214 16.4271 41.8672 16.5V17.8438ZM46.4375 23.9766C46.9531 23.9766 47.4036 23.8203 47.7891 23.5078C48.1745 23.1953 48.388 22.8047 48.4297 22.3359H49.7969C49.7708 22.8203 49.6042 23.2812 49.2969 23.7188C48.9896 24.1562 48.5781 24.5052 48.0625 24.7656C47.5521 25.026 47.0104 25.1562 46.4375 25.1562C45.2865 25.1562 44.3698 24.7734 43.6875 24.0078C43.0104 23.237 42.6719 22.1849 42.6719 20.8516V20.6094C42.6719 19.7865 42.8229 19.0547 43.125 18.4141C43.4271 17.7734 43.8594 17.276 44.4219 16.9219C44.9896 16.5677 45.6589 16.3906 46.4297 16.3906C47.3776 16.3906 48.1641 16.6745 48.7891 17.2422C49.4193 17.8099 49.7552 18.5469 49.7969 19.4531H48.4297C48.388 18.9062 48.1797 18.4583 47.8047 18.1094C47.4349 17.7552 46.9766 17.5781 46.4297 17.5781C45.6953 17.5781 45.125 17.8438 44.7188 18.375C44.3177 18.901 44.1172 19.6641 44.1172 20.6641V20.9375C44.1172 21.9115 44.3177 22.6615 44.7188 23.1875C45.1198 23.7135 45.6927 23.9766 46.4375 23.9766ZM52.8672 17.5703C53.5078 16.7839 54.3411 16.3906 55.3672 16.3906C57.1536 16.3906 58.0547 17.3984 58.0703 19.4141V25H56.625V19.4062C56.6198 18.7969 56.4792 18.3464 56.2031 18.0547C55.9323 17.763 55.5078 17.6172 54.9297 17.6172C54.4609 17.6172 54.0495 17.7422 53.6953 17.9922C53.3411 18.2422 53.0651 18.5703 52.8672 18.9766V25H51.4219V13H52.8672V17.5703Z" fill="#E4E4E4"/>
</svg>
